<mxfile host="app.diagrams.net" modified="2024-02-21T04:48:29.049Z" agent="Mozilla/5.0 (Windows NT 10.0; Win64; x64) AppleWebKit/537.36 (KHTML, like Gecko) Chrome/121.0.0.0 Safari/537.36" etag="0kROfN848X0Sdy35CEH3" version="23.1.5" type="github">
  <diagram name="페이지-1" id="5vAdvmvDwGr94354oT2o">
    <mxGraphModel dx="1434" dy="780" grid="1" gridSize="10" guides="1" tooltips="1" connect="1" arrows="1" fold="1" page="1" pageScale="1" pageWidth="827" pageHeight="1169" math="0" shadow="0">
      <root>
        <mxCell id="0" />
        <mxCell id="1" parent="0" />
        <mxCell id="zNgX8LkRVbxXD8OkCL33-21" value="" style="whiteSpace=wrap;html=1;aspect=fixed;" vertex="1" parent="1">
          <mxGeometry x="290" y="10" width="510" height="510" as="geometry" />
        </mxCell>
        <mxCell id="zNgX8LkRVbxXD8OkCL33-10" value="" style="edgeStyle=orthogonalEdgeStyle;rounded=0;orthogonalLoop=1;jettySize=auto;html=1;" edge="1" parent="1" source="zNgX8LkRVbxXD8OkCL33-1" target="zNgX8LkRVbxXD8OkCL33-6">
          <mxGeometry relative="1" as="geometry" />
        </mxCell>
        <mxCell id="zNgX8LkRVbxXD8OkCL33-1" value="Telegram_bot" style="rounded=0;whiteSpace=wrap;html=1;" vertex="1" parent="1">
          <mxGeometry x="160" y="120" width="120" height="60" as="geometry" />
        </mxCell>
        <mxCell id="zNgX8LkRVbxXD8OkCL33-9" value="" style="edgeStyle=orthogonalEdgeStyle;rounded=0;orthogonalLoop=1;jettySize=auto;html=1;" edge="1" parent="1" source="zNgX8LkRVbxXD8OkCL33-2" target="zNgX8LkRVbxXD8OkCL33-1">
          <mxGeometry relative="1" as="geometry" />
        </mxCell>
        <mxCell id="zNgX8LkRVbxXD8OkCL33-2" value="Actor" style="shape=umlActor;verticalLabelPosition=bottom;verticalAlign=top;html=1;outlineConnect=0;" vertex="1" parent="1">
          <mxGeometry x="70" y="120" width="30" height="60" as="geometry" />
        </mxCell>
        <mxCell id="zNgX8LkRVbxXD8OkCL33-20" value="" style="edgeStyle=orthogonalEdgeStyle;rounded=0;orthogonalLoop=1;jettySize=auto;html=1;" edge="1" parent="1" source="zNgX8LkRVbxXD8OkCL33-3" target="zNgX8LkRVbxXD8OkCL33-19">
          <mxGeometry relative="1" as="geometry" />
        </mxCell>
        <mxCell id="zNgX8LkRVbxXD8OkCL33-3" value="check" style="rounded=0;whiteSpace=wrap;html=1;" vertex="1" parent="1">
          <mxGeometry x="440" y="40" width="121" height="60" as="geometry" />
        </mxCell>
        <mxCell id="zNgX8LkRVbxXD8OkCL33-4" value="write" style="rounded=0;whiteSpace=wrap;html=1;" vertex="1" parent="1">
          <mxGeometry x="440" y="120" width="120" height="60" as="geometry" />
        </mxCell>
        <mxCell id="zNgX8LkRVbxXD8OkCL33-5" value="adsense" style="rounded=0;whiteSpace=wrap;html=1;" vertex="1" parent="1">
          <mxGeometry x="440" y="200" width="120" height="60" as="geometry" />
        </mxCell>
        <mxCell id="zNgX8LkRVbxXD8OkCL33-11" style="edgeStyle=orthogonalEdgeStyle;rounded=0;orthogonalLoop=1;jettySize=auto;html=1;exitX=1;exitY=0.5;exitDx=0;exitDy=0;entryX=0;entryY=0.5;entryDx=0;entryDy=0;" edge="1" parent="1" source="zNgX8LkRVbxXD8OkCL33-6" target="zNgX8LkRVbxXD8OkCL33-3">
          <mxGeometry relative="1" as="geometry" />
        </mxCell>
        <mxCell id="zNgX8LkRVbxXD8OkCL33-13" style="edgeStyle=orthogonalEdgeStyle;rounded=0;orthogonalLoop=1;jettySize=auto;html=1;exitX=1;exitY=0.75;exitDx=0;exitDy=0;entryX=0;entryY=0.75;entryDx=0;entryDy=0;" edge="1" parent="1" source="zNgX8LkRVbxXD8OkCL33-6" target="zNgX8LkRVbxXD8OkCL33-4">
          <mxGeometry relative="1" as="geometry" />
        </mxCell>
        <mxCell id="zNgX8LkRVbxXD8OkCL33-14" style="edgeStyle=orthogonalEdgeStyle;rounded=0;orthogonalLoop=1;jettySize=auto;html=1;exitX=1;exitY=1;exitDx=0;exitDy=0;entryX=0;entryY=0.75;entryDx=0;entryDy=0;" edge="1" parent="1" source="zNgX8LkRVbxXD8OkCL33-6" target="zNgX8LkRVbxXD8OkCL33-5">
          <mxGeometry relative="1" as="geometry" />
        </mxCell>
        <mxCell id="zNgX8LkRVbxXD8OkCL33-15" style="edgeStyle=orthogonalEdgeStyle;rounded=0;orthogonalLoop=1;jettySize=auto;html=1;exitX=0.75;exitY=1;exitDx=0;exitDy=0;entryX=0;entryY=0.5;entryDx=0;entryDy=0;" edge="1" parent="1" source="zNgX8LkRVbxXD8OkCL33-6" target="zNgX8LkRVbxXD8OkCL33-7">
          <mxGeometry relative="1" as="geometry" />
        </mxCell>
        <mxCell id="zNgX8LkRVbxXD8OkCL33-6" value="scheduling" style="rounded=0;whiteSpace=wrap;html=1;" vertex="1" parent="1">
          <mxGeometry x="310" y="120" width="80" height="60" as="geometry" />
        </mxCell>
        <mxCell id="zNgX8LkRVbxXD8OkCL33-7" value="stastics" style="rounded=0;whiteSpace=wrap;html=1;" vertex="1" parent="1">
          <mxGeometry x="440" y="280" width="120" height="60" as="geometry" />
        </mxCell>
        <mxCell id="zNgX8LkRVbxXD8OkCL33-8" value="result" style="rounded=0;whiteSpace=wrap;html=1;" vertex="1" parent="1">
          <mxGeometry x="441" y="360" width="120" height="60" as="geometry" />
        </mxCell>
        <mxCell id="zNgX8LkRVbxXD8OkCL33-16" style="edgeStyle=orthogonalEdgeStyle;rounded=0;orthogonalLoop=1;jettySize=auto;html=1;exitX=0.5;exitY=1;exitDx=0;exitDy=0;entryX=0;entryY=0.633;entryDx=0;entryDy=0;entryPerimeter=0;" edge="1" parent="1" source="zNgX8LkRVbxXD8OkCL33-6" target="zNgX8LkRVbxXD8OkCL33-8">
          <mxGeometry relative="1" as="geometry" />
        </mxCell>
        <mxCell id="zNgX8LkRVbxXD8OkCL33-19" value="" style="whiteSpace=wrap;html=1;rounded=0;" vertex="1" parent="1">
          <mxGeometry x="641.5" y="40" width="120" height="60" as="geometry" />
        </mxCell>
      </root>
    </mxGraphModel>
  </diagram>
</mxfile>
